<?xml version="1.0" encoding="utf-8"?>
<!-- Generator: Adobe Illustrator 22.1.0, SVG Export Plug-In . SVG Version: 6.00 Build 0)  -->
<svg version="1.1" id="Layer_1" xmlns="http://www.w3.org/2000/svg" xmlns:xlink="http://www.w3.org/1999/xlink" x="0px" y="0px"
	 viewBox="0 0 150 150" style="enable-background:new 0 0 150 150;" xml:space="preserve">
<style type="text/css">
	.st0{fill:none;}
	.st1{font-family:'RaiderCrusader';}
	.st2{font-size:23px;}
</style>
<path d="M138.5,51.3c0-5.3-4.3-9.6-9.6-9.6H77.9c0,0,0,0,0,0H43.6c-12.2,0-22.1,9.9-22.1,22.1v11.9c0,0.1,0,0.2,0,0.3
	c0,6.7,3.6,11.9,8.5,15.5c14.8,10.8,42.6,10.7,42.7,10.8h0c0.5,0,0.9-0.1,1.2-0.4c5.8-4.5,10.9-6.9,14.5-8.2c1.8-0.6,3.3-1,4.2-1.2
	c0.5-0.1,0.9-0.2,1.1-0.2c0.2,0,0.3,0,0.3,0c0.7-0.1,1.4-0.5,1.7-1.2c0.9-2,1.3-3.8,1.3-5.4c0-2.8-1.4-5-3.2-6.2
	c-3.4-2.3-7.7-2.4-9.8-2.5c-0.7,0-1.1,0-1.2,0c-0.3,0-0.5,0.1-0.7,0.2c-7.4,3.6-11.9,4.6-14.4,4.6c-1.6,0-2.3-0.4-2.6-0.5
	c0,0,0,0-0.1,0l-0.9-5.4h60c5.3,0,9.6-4.3,9.6-9.7c0-2.1-0.7-4.2-1.9-5.9C135.8,59,138.5,55.5,138.5,51.3z M130.8,56.6H89.1
	c-1.1,0-2,0.9-2,2s0.9,2,2,2h37.3c2,0.8,3.7,3.2,3.6,5.6c0,3.1-2.5,5.6-5.7,5.7H62c-0.6,0-1.1,0.3-1.5,0.7c-0.4,0.4-0.5,1-0.5,1.6
	l1.3,8.2l0.1,0.4c0.1,0.6,1.9,3.2,6.4,3c3.3,0,8.2-1.1,15.8-4.8c0.1,0,0.3,0,0.5,0c1.7,0,5.6,0.3,7.4,1.7c1,0.8,1.5,1.4,1.5,2.9
	c0,0.7-0.2,1.6-0.6,2.7C89.6,89,81.6,91,72,98.4c-1.1,0-3.6-0.1-6.9-0.4c-6.8-0.6-17.1-2.1-25.4-5.5c-4.2-1.7-7.8-3.9-10.3-6.6
	c-2.5-2.7-4-5.8-4-9.8v-0.2v-12c0-10,8.1-18.1,18.1-18.1h27c0,0,0,0,0,0h58.2c3.1,0,5.6,2.5,5.6,5.7C134.5,53.7,133,55.8,130.8,56.6
	z"/>
<rect y="121.6" class="st0" width="150" height="28.4"/>
<text transform="matrix(1 0 0 1 42.4209 137.7985)" class="st1 st2">Lizard</text>
</svg>
