<?xml version="1.0" encoding="utf-8"?>
<!-- Generator: Adobe Illustrator 22.1.0, SVG Export Plug-In . SVG Version: 6.00 Build 0)  -->
<svg version="1.1" id="Layer_1" xmlns="http://www.w3.org/2000/svg" xmlns:xlink="http://www.w3.org/1999/xlink" x="0px" y="0px"
	 viewBox="0 0 150 150" style="enable-background:new 0 0 150 150;" xml:space="preserve">
<style type="text/css">
	.st0{fill:none;}
	.st1{font-family:'RaiderCrusader';}
	.st2{font-size:23px;}
</style>
<path d="M111.4,79.8V28.7c0-5.1-4.1-9.2-9.1-9.2c-1.9,0-3.6,0.6-5,1.5v-5.8c0-5.1-4.1-9.2-9.2-9.2c-2,0-3.8,0.6-5.3,1.7
	c-1.1-3.9-4.6-6.7-8.8-6.7c-5.1,0-9.1,4.1-9.1,9.2v1.6c-1.4-0.9-3.2-1.5-5-1.5c-5.1,0-9.2,4.1-9.2,9.2v28.8c-1.2-1.7-3.2-3-5.8-3
	c-1.6,0-3.2,0.4-5.1,1.3c-0.6,0.3-1,0.9-1.1,1.6c0,0,0,0.1,0,0.3c-0.2,1.6-1.6,9.3-9.1,18.9c-0.3,0.4-0.4,0.8-0.4,1.3
	c0,0.1,1,11.9,4.9,23.8c2,6,4.6,12,8.4,16.7c3.8,4.6,8.8,8,15.2,8h0c0.1,0,0.2,0,0.2,0l32.6,0c11.6,0,21-9.4,21-21L111.4,79.8
	C111.4,79.9,111.4,79.8,111.4,79.8L111.4,79.8z M50.6,64.3v11.8l-1.5-0.5c-0.2-0.2-0.6-0.7-0.6-2.6C48.4,71.4,48.9,68.6,50.6,64.3z
	 M90.4,113.3c0,0-32.8,0-32.8,0c-5,0-8.9-2.5-12.3-6.6c-5-6.1-8.2-15.8-10.1-23.9c-0.9-4-1.5-7.7-1.9-10.3c-0.2-1.6-0.4-2.8-0.4-3.5
	c6.9-9.1,8.8-16.6,9.3-19.4c1.1-0.4,1.9-0.5,2.6-0.5c1.4,0,2.1,0.5,2.8,1.5c1.3,1.8,1.7,5.4,1.6,7.1c0,0.2,0,0.4,0,0.5
	c-3.5,7.2-4.5,11.8-4.6,14.9c-0.1,4.2,2.3,5.9,2.9,6l4.4,1.3c0.3,0.1,1.6,0.2,1.6,0.2s0.7,0,1.8,0.2c3.6,0.5,10.9,2.4,13.5,8.3
	c0.3,0.7,1,1.1,1.7,1.1c0.3,0,0.5-0.1,0.8-0.2c1-0.4,1.4-1.6,0.9-2.5c-2.5-5.3-7.2-7.9-11.2-9.2c-2.9-1-5.4-1.3-6.7-1.4V19.5
	c0-3,2.4-5.4,5.4-5.4c2.3,0,4.2,1.4,5,3.5c0,0,0,41.7,0,41.7c0,1,0.8,1.9,1.9,1.9c1,0,1.9-0.8,1.9-1.9v-49c0-3,2.4-5.4,5.4-5.4
	c3,0,5.4,2.4,5.4,5.4v51.8c0,1,0.8,1.9,1.9,1.9c1,0,1.9-0.9,1.9-1.9h0V13.3c0.8-2,2.7-3.5,5-3.5c3,0,5.4,2.4,5.4,5.4v48.9
	c0,1,0.8,1.9,1.9,1.9s1.9-0.9,1.9-1.9h0V26.8c0.8-2,2.7-3.5,5-3.4c3,0,5.4,2.4,5.4,5.4v51.1v16.3C107.6,105.6,99.9,113.3,90.4,113.3
	z"/>
<rect y="121.1" class="st0" width="150" height="28.4"/>
<text transform="matrix(1 0 0 1 44.7783 137.3024)" class="st1 st2">Paper</text>
</svg>
