<?xml version="1.0" encoding="utf-8"?>
<!-- Generator: Adobe Illustrator 22.1.0, SVG Export Plug-In . SVG Version: 6.00 Build 0)  -->
<svg version="1.1" id="Layer_1" xmlns="http://www.w3.org/2000/svg" xmlns:xlink="http://www.w3.org/1999/xlink" x="0px" y="0px"
	 viewBox="0 0 150 150" style="enable-background:new 0 0 150 150;" xml:space="preserve">
<style type="text/css">
	.st0{fill:none;}
	.st1{font-family:'RaiderCrusader';}
	.st2{font-size:23px;}
</style>
<path d="M118.8,35.4c0-5.6-4.6-10.2-10.2-10.2c-2.1,0-4,0.7-5.7,1.8c-0.7-5-4.9-8.8-10.1-8.8c-2.2,0-4.3,0.7-6,1.9
	c-1.2-4.3-5.1-7.4-9.8-7.4c-4.9,0-8.9,3.4-9.9,8c-0.1,0.5,0,0.4-0.1,0.6c0,0.5,0,1.7,0,3.4c-1.6-1.1-3.6-1.8-5.7-1.8
	c-4.9,0-8.9,3.4-9.9,8l0,0.5v6.3c-1.3-1.9-3.6-3.3-6.5-3.3c-1.7,0-3.6,0.5-5.7,1.4c-0.7,0.3-1.2,1-1.2,1.8c0,0,0,0.1,0,0.3
	c-0.2,1.8-1.8,10.3-10.2,21c-0.3,0.4-0.5,0.9-0.4,1.5c0,0.1,1.1,13.1,5.4,26.3c2.2,6.6,5.2,13.3,9.4,18.4c4.2,5.1,9.9,8.9,17,8.8
	c0.1,0,0.2,0,0.2,0l0.5,0c1.4,0.3,2.8,0.4,4.2,0.4l31.5,0c12.9,0,23.4-10.5,23.4-23.4L118.8,35.4z M103,33.3c0.9-2.3,3-3.9,5.6-3.9
	v0c3.3,0,6,2.7,6,6v13.8c0,0.4,0,0.7-0.1,1.1v0c-0.5,2.7-2.9,4.8-5.9,4.8c-1.7,0-3.2-0.7-4.3-1.8c-0.5-0.5-0.9-1.1-1.1-1.7
	c0-0.1-0.1-0.2-0.1-0.3c0-0.1-0.1-0.2-0.1-0.2c0,0,0,0,0,0c-0.2-0.6-0.3-1.2-0.3-1.8l0-13.8c0-0.4,0-0.8,0.1-1.2
	c0-0.2,0.1-0.4,0.2-0.7C103,33.4,103,33.4,103,33.3z M92.8,22.3L92.8,22.3c3.3,0,6,2.7,6,6v27.2c0,2.1-1,3.9-2.6,4.9
	c-0.9,0.6-2.1,1-3.3,1c-2,0-3.8-1-4.9-2.5c-0.3-0.4-0.6-0.9-0.7-1.4c0-0.1,0-0.1-0.1-0.2c-0.2-0.6-0.3-1.2-0.3-1.8l0-27.2
	c0-0.6,0.1-1.3,0.3-1.8c0-0.1,0.1-0.1,0.1-0.2C88.1,23.9,90.3,22.3,92.8,22.3z M71.3,21.9c0-0.2,0-0.4,0-0.6v0
	c0.6-2.6,3-4.5,5.8-4.5c3.3,0,6,2.7,6,6c0,0.1-0.1,33.9-0.1,34.4c0,0.3,0,0.5,0,0.7c0,0.1,0,0.1,0,0.2c0,0,0,0.1,0,0.1
	c0,0.2,0,0.5-0.1,0.7c0,0.1,0,0.2,0,0.3c-0.1,0.3-0.2,0.5-0.3,0.8c0,0.1-0.1,0.2-0.1,0.3c-0.1,0.2-0.2,0.5-0.4,0.7
	c-0.1,0.1-0.1,0.2-0.2,0.3c-0.1,0.2-0.3,0.4-0.5,0.6c-0.1,0.1-0.2,0.2-0.3,0.3c-0.2,0.2-0.4,0.3-0.5,0.4c-0.1,0.1-0.2,0.2-0.3,0.3
	c-0.2,0.1-0.4,0.2-0.6,0.3c-0.1,0.1-0.3,0.2-0.4,0.2c-0.2,0.1-0.5,0.1-0.7,0.2c-0.1,0-0.3,0.1-0.4,0.1c-0.4,0.1-0.7,0.1-1.1,0.1
	c0,0-0.1,0-0.1,0c-0.2,0-0.4,0-0.6-0.1c-2.9-0.3-5.1-2.8-5.1-5.9C71.3,57.8,71.3,22.4,71.3,21.9z M55.6,31.5c0.7-2.6,3-4.5,5.8-4.5
	c2.5,0,4.7,1.6,5.6,3.8v22.7c0,0.1-0.1,0.2-0.1,0.4c-0.1,0.1-0.1,0.3-0.2,0.4c-0.1,0.1-0.2,0.3-0.3,0.4c-0.1,0.1-0.2,0.2-0.2,0.4
	c-0.1,0.1-0.2,0.2-0.3,0.4c-0.1,0.1-0.2,0.2-0.3,0.3c-0.1,0.1-0.2,0.2-0.4,0.3c-0.1,0.1-0.2,0.2-0.3,0.3c-0.1,0.1-0.3,0.2-0.4,0.3
	c-0.1,0.1-0.2,0.2-0.4,0.2c-0.1,0.1-0.3,0.1-0.5,0.2c-0.1,0.1-0.2,0.1-0.4,0.2c-0.2,0.1-0.4,0.1-0.6,0.1c-0.1,0-0.2,0.1-0.3,0.1
	c-0.3,0-0.6,0.1-0.9,0.1c0,0,0,0,0,0c-0.4,0-0.7,0-1-0.1c-0.1,0-0.2-0.1-0.3-0.1c-0.2-0.1-0.5-0.1-0.7-0.2c-0.1,0-0.2-0.1-0.4-0.2
	c-0.2-0.1-0.4-0.2-0.5-0.2c-0.1-0.1-0.2-0.2-0.4-0.2c-0.1-0.1-0.3-0.2-0.4-0.3c-0.1-0.1-0.2-0.2-0.3-0.3c-0.1-0.1-0.2-0.2-0.4-0.3
	c-0.1-0.1-0.2-0.3-0.3-0.4c-0.1-0.1-0.2-0.3-0.3-0.4c-0.1-0.1-0.2-0.3-0.2-0.4c-0.1-0.1-0.2-0.3-0.2-0.4c-0.1-0.2-0.1-0.3-0.2-0.5
	c0-0.1-0.1-0.3-0.1-0.4L55.6,31.5L55.6,31.5z M51.3,55.3v13.1l-1.7-0.5c-0.2-0.2-0.7-0.8-0.7-2.8C48.9,63.1,49.5,60,51.3,55.3z
	 M114.8,90.7c0,10.6-8.6,19.2-19.2,19.2H64.1c-1.2,0-2.4-0.1-3.6-0.3l-0.4,0l-0.7,0c0,0-0.1,0-0.1,0c-0.1,0-0.1,0-0.2,0
	c-5.6,0-10-2.8-13.7-7.3c-5.6-6.8-9.2-17.4-11.2-26.4c-1-4.5-1.7-8.5-2.1-11.4c-0.2-1.7-0.4-3.1-0.5-3.8C39.3,50.5,41.4,42.1,42,39
	c1.2-0.4,2.2-0.6,2.9-0.6c1.6,0,2.3,0.6,3.1,1.6c1.5,2,1.9,6.1,1.8,7.9c0,0.2,0,0.4,0,0.5c-3.9,8-5.1,13.1-5.1,16.6
	c-0.1,4.7,2.6,6.6,3.2,6.7l4.9,1.5c0.3,0.1,4.6,0.2,8,1.2c3.8,1.2,7.8,3.5,9.8,7.8c0.4,0.8,1.1,1.2,1.9,1.2c0.3,0,0.6-0.1,0.9-0.2
	c1.1-0.5,1.5-1.7,1-2.8c-2.7-5.8-8-8.7-12.4-10c-2.6-0.8-5-1.1-6.5-1.3v-9.3c0.1,0.1,0.3,0.2,0.4,0.3c0.2,0.1,0.4,0.2,0.6,0.3
	c0.3,0.2,0.6,0.3,0.9,0.4c0.2,0.1,0.4,0.2,0.6,0.2c0.4,0.1,0.7,0.2,1.1,0.3c0.2,0,0.3,0.1,0.5,0.1c0.6,0.1,1.1,0.1,1.7,0.2l0,0
	c0,0,0.1,0,0.1,0c0.5,0,1,0,1.5-0.1c0.2,0,0.3-0.1,0.5-0.1c0.4-0.1,0.7-0.2,1.1-0.3c0.2-0.1,0.4-0.2,0.5-0.2
	c0.3-0.1,0.6-0.2,0.9-0.4c0.2-0.1,0.4-0.2,0.5-0.3c0.2-0.1,0.4-0.2,0.6-0.4c0.8,3.9,3.9,7.1,7.9,7.9c0,0,0.1,0,0.1,0
	c0.3,0.1,0.6,0.1,0.9,0.1c0,0,0.1,0,0.1,0c0.3,0,0.7,0.1,1,0.1c0,0,0.1,0,0.1,0c0.4,0,0.8,0,1.2-0.1c0.1,0,0.3,0,0.4-0.1
	c0.3,0,0.6-0.1,0.9-0.2c0.1,0,0.2-0.1,0.4-0.1c0.4-0.1,0.8-0.2,1.1-0.4c0,0,0.1,0,0.1-0.1c0.3-0.1,0.6-0.3,0.9-0.5
	c0.1-0.1,0.2-0.1,0.3-0.2c0.3-0.2,0.5-0.3,0.8-0.5c0.1-0.1,0.1-0.1,0.2-0.2c0.3-0.2,0.6-0.5,0.9-0.8c0,0,0.1-0.1,0.1-0.1
	c0.2-0.3,0.5-0.5,0.7-0.8c0.1-0.1,0.1-0.2,0.2-0.2c0.2-0.3,0.4-0.6,0.6-0.9c0,0,0.1-0.1,0.1-0.1c0.3,0.2,0.5,0.5,0.8,0.7
	c0.1,0,0.1,0.1,0.2,0.1c0.4,0.3,0.8,0.5,1.2,0.7c0,0,0.1,0,0.1,0c0.4,0.2,0.9,0.4,1.3,0.6c0.1,0,0.2,0.1,0.3,0.1
	c0.4,0.1,0.9,0.3,1.4,0.3c0.1,0,0.2,0,0.3,0c0.5,0.1,1,0.1,1.5,0.1c0,0,0,0,0,0c0.1,0,0.1,0,0.2,0c0.3,0,0.5,0,0.8,0
	c0.1,0,0.3,0,0.4-0.1c0.2,0,0.4,0,0.6-0.1c0.1,0,0.3-0.1,0.4-0.1c0.2,0,0.3-0.1,0.5-0.1c0.1,0,0.3-0.1,0.4-0.1
	c0.2-0.1,0.3-0.1,0.5-0.2c0.1-0.1,0.3-0.1,0.4-0.2c0.2-0.1,0.3-0.2,0.5-0.2c0.1-0.1,0.2-0.1,0.4-0.2c0.2-0.1,0.3-0.2,0.5-0.3
	c0.1-0.1,0.2-0.1,0.3-0.2c0.2-0.2,0.5-0.3,0.7-0.5c0.1-0.1,0.1-0.1,0.2-0.2c0.2-0.2,0.4-0.3,0.5-0.5c0.1-0.1,0.2-0.2,0.2-0.3
	c0.1-0.1,0.3-0.3,0.4-0.4c0.1-0.1,0.2-0.2,0.3-0.3c0.1-0.1,0.2-0.3,0.3-0.4c0.1-0.1,0.2-0.2,0.2-0.3c0.1-0.1,0.2-0.3,0.3-0.4
	c0.1-0.1,0.1-0.2,0.2-0.4c0.1-0.2,0.2-0.3,0.2-0.5c0.1-0.1,0.1-0.2,0.2-0.4c0.1-0.2,0.1-0.4,0.2-0.5c0-0.1,0.1-0.2,0.1-0.3
	c0.1-0.3,0.2-0.6,0.2-0.9c0.2,0.1,0.4,0.3,0.6,0.4c0.2,0.1,0.4,0.2,0.5,0.3c0.3,0.1,0.6,0.3,0.9,0.4c0.2,0.1,0.4,0.2,0.6,0.2
	c0.3,0.1,0.7,0.2,1,0.3c0.2,0,0.3,0.1,0.5,0.1c0.5,0.1,1.1,0.1,1.6,0.1c0.5,0,1.1-0.1,1.6-0.1c0,0,0.1,0,0.1,0
	c0.5-0.1,1-0.2,1.5-0.4c0.1,0,0.1,0,0.2-0.1c0.5-0.2,0.9-0.4,1.3-0.6c0.1,0,0.1-0.1,0.2-0.1c0.4-0.2,0.8-0.5,1.2-0.8
	c0,0,0.1,0,0.1-0.1L114.8,90.7L114.8,90.7L114.8,90.7z"/>
<rect y="121.6" class="st0" width="150" height="28.4"/>
<text transform="matrix(1 0 0 1 50.6431 137.8388)" class="st1 st2">Rock</text>
</svg>
