<?xml version="1.0" encoding="utf-8"?>
<!-- Generator: Adobe Illustrator 22.1.0, SVG Export Plug-In . SVG Version: 6.00 Build 0)  -->
<svg version="1.1" id="Layer_1" xmlns="http://www.w3.org/2000/svg" xmlns:xlink="http://www.w3.org/1999/xlink" x="0px" y="0px"
	 viewBox="0 0 150 150" style="enable-background:new 0 0 150 150;" xml:space="preserve">
<style type="text/css">
	.st0{fill:none;}
	.st1{font-family:'RaiderCrusader';}
	.st2{font-size:23px;}
</style>
<path d="M104.2,52.5L104.2,52.5c-0.4-0.1-0.8-0.1-1.2-0.1c-1.3,0-2.6,0.3-3.7,0.9c0,0,0,0,0-0.1c0-4.2-3.1-7.8-7.3-8.4
	c-0.4-0.1-0.8-0.1-1.2-0.1c-1.4,0-2.6,0.3-3.8,0.9L90.7,18c0.1-0.4,0.1-0.8,0.1-1.2c0-4.2-3.1-7.8-7.3-8.4c-0.4-0.1-0.8-0.1-1.2-0.1
	c-4.2,0-7.8,3.1-8.4,7.3l-6,40.2L57.4,17.4c-1-3.8-4.4-6.3-8.2-6.3c-0.7,0-1.5,0.1-2.2,0.3c-3.8,1-6.3,4.4-6.3,8.2
	c0,0.7,0.1,1.5,0.3,2.2L48.2,51c-0.7,0.1-1.5,0.3-2.3,0.6c-0.3,0.1-0.6,0.2-0.9,0.4c-0.6,0.3-1,0.8-1,1.5c0,0,0,0.1,0,0.3
	c-0.2,1.5-1.5,8.5-8.4,17.4v0c-0.1,0.2-0.2,0.4-0.3,0.5c0,0,0,0,0,0c-0.1,0.2-0.1,0.4-0.1,0.6c0,0,0,0,0,0c0,0.1,0.9,11,4.5,22
	c1.8,5.5,4.3,11.1,7.8,15.4c3.5,4.3,8.2,7.4,14.1,7.4h0c0.1,0,0.2,0,0.2,0l30.1,0c10.7,0,19.4-8.7,19.4-19.4l0.2-35.7
	c0.1-0.4,0.1-0.8,0.1-1.2C111.5,56.7,108.4,53.1,104.2,52.5z M90.9,48.3L90.9,48.3c0.2,0,0.5,0,0.7,0.1c2.5,0.3,4.3,2.5,4.3,4.9
	c0,0.2,0,0.5,0,0.7l-0.5,3.6l-2,14.1l-0.2,1.7l-0.4,2.9c0,0,0,0.1,0,0.1c-0.4,2.4-2.5,4.2-4.9,4.2c-0.2,0-0.5,0-0.7,0
	c-2.2-0.3-3.8-2-4.2-4c0,0,0,0,0,0c0-0.3-0.1-0.6-0.1-0.9c0-0.2,0-0.4,0-0.7l1.1-7.7l1.4-9.7l0.7-5c0.1-0.5,0.2-0.9,0.4-1.3
	c0,0,0-0.1,0.1-0.1C87.3,49.4,89,48.3,90.9,48.3z M53.6,78.9C53.6,78.9,53.6,78.8,53.6,78.9c-0.1-0.2-0.2-0.3-0.3-0.5
	c0,0,0-0.1,0-0.1c0,0,0,0,0,0c-0.1-0.4-0.2-0.9-0.2-1.7c0-0.1,0-0.2,0-0.3c0-0.1,0-0.3,0-0.4c0-0.1,0-0.2,0-0.4c0-0.2,0-0.3,0.1-0.5
	c0-0.1,0-0.3,0.1-0.4c0-0.2,0.1-0.4,0.1-0.6c0-0.2,0.1-0.3,0.1-0.5c0-0.1,0-0.2,0.1-0.3l1.1,5.9L53.6,78.9z M107.7,97.8
	c0,8.8-7.1,15.9-15.9,15.9H61.7c-0.1,0-0.2,0-0.2,0c-4.6,0-8.3-2.3-11.4-6.1c-4.6-5.7-7.6-14.6-9.3-22c-0.9-3.7-1.4-7.1-1.7-9.5
	c-0.2-1.5-0.3-2.6-0.4-3.2c0.1-0.1,0.2-0.3,0.3-0.4c0.2-0.3,0.5-0.6,0.7-0.9c0.2-0.2,0.3-0.4,0.4-0.6c0.2-0.3,0.4-0.6,0.6-0.9
	c0.1-0.2,0.3-0.4,0.4-0.6c0.2-0.3,0.4-0.6,0.6-0.9c0.1-0.2,0.2-0.4,0.3-0.6c0.2-0.3,0.4-0.6,0.5-0.9c0.1-0.2,0.2-0.4,0.3-0.5
	c0.2-0.3,0.3-0.6,0.5-0.9c0.1-0.2,0.2-0.3,0.3-0.5c0.1-0.3,0.3-0.6,0.4-0.9c0.1-0.1,0.1-0.3,0.2-0.4c0.1-0.3,0.3-0.6,0.4-0.8
	c0.1-0.1,0.1-0.3,0.2-0.4c0.1-0.3,0.2-0.6,0.4-0.8c0-0.1,0.1-0.2,0.1-0.3c0.1-0.3,0.2-0.5,0.3-0.8c0-0.1,0.1-0.2,0.1-0.3
	c0.1-0.3,0.2-0.5,0.3-0.8c0-0.1,0.1-0.2,0.1-0.2c0.1-0.3,0.2-0.5,0.3-0.8c0-0.1,0-0.1,0.1-0.2c0.1-0.2,0.1-0.5,0.2-0.7
	c0-0.1,0-0.1,0-0.2c0.1-0.2,0.1-0.5,0.2-0.7c0-0.1,0-0.1,0-0.2c0.1-0.2,0.1-0.4,0.1-0.6c0-0.1,0-0.1,0-0.2c0-0.1,0.1-0.3,0.1-0.4
	c0-0.2,0.1-0.4,0.1-0.5c0.6-0.2,1.2-0.4,1.7-0.4c0,0,0,0,0,0c0.3,0,0.5-0.1,0.7-0.1c0.4,0,0.7,0.1,1,0.1c0.4,0.1,0.8,0.4,1.1,0.7
	c0.1,0.1,0.3,0.3,0.4,0.5c0.4,0.5,0.6,1.1,0.8,1.8c0.5,1.7,0.7,3.7,0.7,4.8c0,0.2,0,0.3,0,0.4v0c-0.1,0.2-0.2,0.4-0.3,0.6
	c-0.2,0.4-0.4,0.8-0.6,1.2c-0.4,0.8-0.7,1.6-1,2.3c-1.8,4.4-2.4,7.5-2.4,9.8c0,0.4,0,0.8,0.1,1.1c0.3,2.6,1.6,4,2.3,4.3
	c0.1,0.1,0.2,0.1,0.3,0.1l0.1,0l0.1,0l3.3,1l0.6,0.2c0.2,0,0.3,0.1,0.5,0.1c0,0,0,0,0,0c0,0,0.1,0,0.1,0c0.1,0,0.1,0,0.2,0
	c0.5,0,3.1,0.1,5.8,1c3.2,1,6.5,2.9,8.2,6.4c0.3,0.6,0.9,1,1.6,1c0.2,0,0.5-0.1,0.7-0.2c0.9-0.4,1.3-1.4,0.9-2.3
	C72,84.5,67.6,82.1,64,81c-2.3-0.7-4.4-1-5.7-1.1l-1.1-6l-0.5-2.6L55.6,67c0.2-0.4,0.3-0.7,0.5-1.1c0.3-0.6,0.6-1.2,0.9-1.9l0,0
	c0,0,0-0.1,0-0.1c0.1-0.2,0.2-0.4,0.2-0.7c0,0,0-0.2,0-0.6c0-0.1,0-0.3,0-0.4l0,0c0-0.3,0-0.8,0-1.2c0-0.2,0-0.4,0-0.6
	c0-0.2,0-0.5-0.1-0.8c-0.2-1.8-0.7-4-2-5.9c-0.2-0.3-0.5-0.6-0.8-0.9c-0.7-0.7-1.5-1.2-2.5-1.5l-7.3-30.3c-0.1-0.5-0.2-0.9-0.2-1.3
	c0-2.2,1.5-4.2,3.7-4.8c0.4-0.1,0.9-0.2,1.3-0.2c2.2,0,4.2,1.5,4.8,3.7l11.5,42.1l0.8,2.9c0,0.2,0.1,0.3,0.2,0.5
	c0.4,0.6,1.1,0.9,1.8,0.8c0,0,0,0,0.1,0c1,0.1,1.8-0.5,2-1.5l0.2-1l0.6-4.1l6.3-41.7c0.3-2.5,2.5-4.3,4.9-4.3c0.2,0,0.5,0,0.7,0
	c2.5,0.3,4.3,2.5,4.3,4.9c0,0.2,0,0.5,0,0.7l-7.9,56.8c-0.1,0.4-0.1,0.8-0.1,1.2c0,0.5,0,1,0.1,1.5c0.6,3.5,3.4,6.4,7.2,6.9
	C87,84,87.4,84,87.8,84c3.6,0,6.8-2.3,7.9-5.6c1.2,1.1,2.8,1.9,4.5,2.2c0.4,0.1,0.8,0.1,1.1,0.1h0.1c2.4,0,4.7-1.1,6.2-2.8
	L107.7,97.8C107.7,97.8,107.7,97.8,107.7,97.8z M107.9,61.6l-0.3,2.1l-0.2,1.2l-0.8,5.8l-0.3,2.2c0,0.3-0.1,0.6-0.2,0.9
	c-0.7,2-2.6,3.4-4.7,3.4c-0.2,0-0.5,0-0.7,0c-2.1-0.3-3.7-1.9-4.1-3.8c0-0.1,0-0.1,0-0.2c0,0,0,0,0-0.1c-0.1-0.3-0.1-0.6-0.1-0.9
	c0-0.2,0-0.4,0-0.7l1-7.3l0.6-4.1c0-0.3,0.1-0.6,0.2-0.9c0.1-0.2,0.1-0.4,0.2-0.5c0-0.1,0.1-0.1,0.1-0.2c0.8-1.6,2.5-2.6,4.3-2.6h0
	c0.2,0,0.5,0,0.7,0h0c2.5,0.3,4.3,2.5,4.3,4.9C108,61.1,108,61.4,107.9,61.6z"/>
<rect y="121.6" class="st0" width="150" height="28.4"/>
<text transform="matrix(1 0 0 1 31.0479 137.7985)" class="st1 st2">Scissors</text>
</svg>
